<svg width="512" height="512" viewBox="0 0 512 512" fill="none" xmlns="http://www.w3.org/2000/svg">
  <defs>
    <linearGradient id="bg" x1="64" y1="56" x2="448" y2="456" gradientUnits="userSpaceOnUse">
      <stop stop-color="#C62828" />
      <stop offset="1" stop-color="#F04E3E" />
    </linearGradient>
    <linearGradient id="paper" x1="158" y1="112" x2="340" y2="390" gradientUnits="userSpaceOnUse">
      <stop stop-color="#FFFDF8" />
      <stop offset="1" stop-color="#F6EFE4" />
    </linearGradient>
    <filter id="shadow" x="108" y="85" width="282" height="324" filterUnits="userSpaceOnUse" color-interpolation-filters="sRGB">
      <feFlood flood-opacity="0" result="BackgroundImageFix"/>
      <feColorMatrix in="SourceAlpha" type="matrix" values="0 0 0 0 0 0 0 0 0 0 0 0 0 0 0 0 0 0 127 0" result="hardAlpha"/>
      <feOffset dy="14"/>
      <feGaussianBlur stdDeviation="12"/>
      <feColorMatrix type="matrix" values="0 0 0 0 0.427451 0 0 0 0 0.0588235 0 0 0 0 0.0588235 0 0 0 0.22 0"/>
      <feBlend mode="normal" in2="BackgroundImageFix" result="effect1_dropShadow_1_1"/>
      <feBlend mode="normal" in="SourceGraphic" in2="effect1_dropShadow_1_1" result="shape"/>
    </filter>
  </defs>
  <rect x="32" y="32" width="448" height="448" rx="112" fill="url(#bg)"/>
  <circle cx="390" cy="142" r="82" fill="#FFFFFF" fill-opacity="0.08"/>
  <g filter="url(#shadow)">
    <path d="M158 112C158 98.7452 168.745 88 182 88H278.059C284.425 88 290.531 90.5286 295.029 95.0294L338.971 138.971C343.471 143.469 346 149.575 346 155.941V376C346 389.255 335.255 400 322 400H182C168.745 400 158 389.255 158 376V112Z" fill="url(#paper)"/>
    <path d="M282 89.7188V138C282 151.255 292.745 162 306 162H354.281C353.237 153.652 349.459 145.856 343.309 139.691L304.309 100.691C298.144 94.541 290.348 90.7631 282 89.7188Z" fill="#F6DCCB"/>
    <rect x="194" y="188" width="116" height="20" rx="10" fill="#CC3D33"/>
    <rect x="194" y="230" width="96" height="20" rx="10" fill="#E77159"/>
    <rect x="194" y="272" width="128" height="20" rx="10" fill="#CC3D33"/>
    <rect x="194" y="314" width="84" height="20" rx="10" fill="#E77159"/>
  </g>
  <g>
    <circle cx="352" cy="342" r="54" fill="#F6C453"/>
    <path d="M352 310L359.416 331.584L381 339L359.416 346.416L352 368L344.584 346.416L323 339L344.584 331.584L352 310Z" fill="#8E1F1F"/>
  </g>
</svg>
